<?xml version="1.0" encoding="utf-8"?>
<!-- Generator: Adobe Illustrator 21.0.2, SVG Export Plug-In . SVG Version: 6.00 Build 0)  -->
<svg version="1.1" id="Layer_1" xmlns="http://www.w3.org/2000/svg" xmlns:xlink="http://www.w3.org/1999/xlink" x="0px" y="0px"
	 viewBox="0 0 299.5 297.9" style="enable-background:new 0 0 299.5 297.9;" xml:space="preserve">
<style type="text/css">
	.st0{fill:none;stroke:#FFFFFF;stroke-width:17;stroke-linejoin:round;stroke-miterlimit:10;}
	.st1{display:none;fill:none;stroke:#FFFFFF;stroke-width:4;stroke-miterlimit:10;}
	.st2{fill:none;stroke:#FFFFFF;stroke-width:17;stroke-miterlimit:10;}
	.st3{fill:none;stroke:#FFFFFF;stroke-width:17;stroke-linecap:round;stroke-miterlimit:10;}
</style>
<g id="Layer_1_1_">
	<circle cx="148.7" cy="148.1" r="145.6"/>
	<g>
		<g>
			<path class="st0" d="M148.7,28.3C82.6,28.3,29,81.9,29,148c0,33.1,13.4,63,35.1,84.7c19.3,19.3,45.2,32.1,74,34.6
				c3.5,0.3,7,0.5,10.6,0.5c66.1,0,119.7-53.6,119.7-119.7S214.8,28.3,148.7,28.3z"/>
		</g>
	</g>
	<line class="st1" x1="29" y1="262.5" x2="288" y2="11.9"/>
	<line class="st2" x1="148.7" y1="267.8" x2="148.7" y2="28.3"/>
	<line class="st3" x1="29" y1="148.1" x2="268.4" y2="148.1"/>
</g>
<g id="Layer_2">
	<rect x="203.2" y="115.1" width="79.5" height="24.6"/>
	<rect x="115.6" y="200.5" width="24.6" height="79.5"/>
	<rect x="43" y="212.8" transform="matrix(0.7071 -0.7071 0.7071 0.7071 -134.961 124.418)" width="79.5" height="24.6"/>
	<rect x="184.5" y="76" transform="matrix(0.7071 -0.7071 0.7071 0.7071 3.2519 184.3949)" width="79.5" height="24.6"/>
	<g>
		<g>
			<path d="M109.2,252.2c-0.4,4.5-0.8,9-2.7,13.2c-0.8,1.7,1.8,3.3,2.6,1.5c2.2-4.7,2.7-9.6,3.1-14.7
				C112.4,250.2,109.4,250.3,109.2,252.2L109.2,252.2z"/>
		</g>
	</g>
	<g>
		<g>
			<path d="M109,267.6c0.1-1.8,0.4-3.5,1-5.2c0.3-0.9,1.7-5.2,3-3.3c0.7,1.1,0.5,4.2,0.5,5.5c0,1.7,0,3.4-0.1,5.1
				c-0.1,1.9,2.9,1.9,3,0c0.3-3.6,0-8.3-2.4-11.3c-1.1-1.4-3.4-2.6-4.8-0.9c-2.6,3.1-1.6,15.2,4.5,10.9c3.8-2.7,7.7-12.4,3.2-15.9
				c-5.6-4.4-10.5,6.8-10.9,10.7c-0.2,1.9,2.8,1.9,3,0c0.2-2.1,1.5-6.8,3.9-7.6c5.2-1.6,1.5,7.4,0.6,8.7c-1.2,1.7-2,1.4-2.4-0.6
				c0-0.8,0-1.5,0.1-2.3c0-2,0.2-2.5,0.5-1.4c2.1,1.9,1.9,7.1,1.7,9.6c1,0,2,0,3,0c0.2-3.1,1.6-14.3-3.7-14.6
				c-4.9-0.3-6.5,9-6.7,12.4C105.9,269.6,108.9,269.6,109,267.6L109,267.6z"/>
		</g>
	</g>
	<g>
		<g>
			<path d="M91.7,251.1c4.3,9.5,22.5,14.1,29,4.9c-3.4-0.4-6.7-0.9-10.1-1.3c0.4,2.5,0.5,5,0,7.4c-0.2,1.1-0.5,2.2-0.8,3.2
				c-0.3,0.8-1.4,2.4-0.7,2c1.4-0.2,2.8-0.4,4.2-0.6c1,0.7,1,0.6,0-0.4c-0.6-0.7-1.3-1.3-2.1-1.8c-1.1-0.8-2.4-1.4-3.6-1.8
				c-3.2-1.2-6.7-1.5-9.9-2.5c-7.1-2.3-13.1-6.8-17.9-12.5c0.3,2.2,0.6,4.4,0.9,6.7c2.8-3.7,6.3-6.8,10.1-9.4
				c-2.7-1.1-5.4-2.2-8.1-3.3c0.9,3.2,1.5,4.9-1.4,6.9c-4.7,3.2-2.6,9.6,2.8,10.2c8.9,1,14.5,7.5,22.7,9.9c6.8,2,9.7-8.6,2.9-10.6
				c-4.6-1.3-8.2-4.9-12.6-6.9c-4.2-1.9-8.5-2.9-13.1-3.4c0.9,3.4,1.9,6.8,2.8,10.2c7.3-5,8.8-10.9,6.4-19.3
				c-0.9-3.2-5.1-5.3-8.1-3.3c-5.5,3.7-10,8.1-14.1,13.3c-1.6,2-0.6,5,0.9,6.7c4.3,5.1,9.6,9.5,15.6,12.4c3,1.5,6.1,2.7,9.3,3.6
				c2.8,0.7,6.2,0.8,8.5,2.7c2,1.6,3.4,3.5,6.3,3.4c3.6-0.1,5.7-2.8,7.2-5.8c3-6.3,3.4-13.3,2.2-20.1c-0.9-5.1-7.6-4.8-10.1-1.3
				c0.7-1.1,0.1-0.4-1.4-0.5c-1.1-0.1-2.2-0.4-3.3-0.7c-2.4-0.6-4.2-1.3-5.3-3.6C98.2,239.2,88.8,244.7,91.7,251.1L91.7,251.1z"/>
		</g>
	</g>
	<g>
		<g>
			<path d="M234.9,88.5c2.8,6.5,7.8,11.7,11,18c3.2,6.4,5.1,13.2,6,20.2c0.6,4.6,6.4,4.7,9.2,2.4c6.4-5.2,5.5-13.8,2.2-20.5
				c-2.1-4.2-4.8-8.1-6.7-12.4c-1-2.3-1.9-4.6-2.7-7c-0.3-1-0.9-6.1-2.2-4.8c-1.3,0.5-2.6,1.1-3.9,1.6c2-0.3,4.3,5.2,5,6.6
				c1.4,3,2.3,6.3,3.1,9.5c1.6,6.4,2.7,12.9,4.9,19.2c1.6,4.7,9.6,5.7,10.6,0c1.4-7.7,2.3-15.5-0.8-22.9c-3.1-7.5-8.3-13.6-11-21.5
				c-2.3-6.7-12.9-3.8-10.6,2.9c2.3,6.7,5.5,12.5,9.1,18.5c4,6.5,3.9,12.7,2.6,20c3.5,0,7.1,0,10.6,0c-3-8.9-4-18.3-7.3-27
				c-2.5-6.6-7.7-17.3-16.3-16.4c-10.5,1.1-5.4,15.4-3.1,21.3c1.8,4.6,4,9.1,6.5,13.4c1.9,3.3,6,8.4,2.1,11.6
				c3.1,0.8,6.1,1.6,9.2,2.4c-1-7.5-3.2-14.6-6.4-21.4c-3.3-6.9-8.7-12.5-11.8-19.5C241.6,76.5,232.1,82.1,234.9,88.5L234.9,88.5z"
				/>
		</g>
	</g>
</g>
</svg>
